<svg width="20" height="20" viewBox="0 0 20 20" fill="none" xmlns="http://www.w3.org/2000/svg">
<g clip-path="url(#clip0_0_3739)">
<path fill-rule="evenodd" clip-rule="evenodd" d="M10.0001 0C15.5226 0 20.0001 4.47754 20.0001 10C20.0001 15.5225 15.5226 20 10.0001 20C4.47766 20 0.00012207 15.5225 0.00012207 10C0.00012207 4.47754 4.47766 0 10.0001 0ZM8.6134 4.96745H9.83573C10.0587 4.96745 10.2426 5.15137 10.2426 5.37435V10.0846H14.5411C14.7657 10.0846 14.948 10.2686 14.948 10.4915V11.7139C14.948 11.9385 14.7641 12.1208 14.5411 12.1208H8.20487V5.37435C8.20487 5.14974 8.38879 4.96745 8.6134 4.96745ZM10.0001 2.27051C14.2693 2.27051 17.7296 5.73079 17.7296 10C17.7296 14.2692 14.2693 17.7295 10.0001 17.7295C5.73092 17.7295 2.27063 14.2692 2.27063 10C2.27063 5.73242 5.73092 2.27051 10.0001 2.27051Z" fill="#F48A71"/>
</g>
<defs>
<clipPath id="clip0_0_3739">
<rect width="20" height="20" fill="white"/>
</clipPath>
</defs>
</svg>
