<svg width="24" height="25" viewBox="0 0 24 25" fill="none" xmlns="http://www.w3.org/2000/svg">
<g clip-path="url(#clip0_10359_7230)">
<path d="M18.3 6.21022C17.91 5.82022 17.28 5.82022 16.89 6.21022L12 11.0902L7.10997 6.20021C6.71997 5.81021 6.08997 5.81021 5.69997 6.20021C5.30997 6.59021 5.30997 7.22022 5.69997 7.61022L10.59 12.5002L5.69997 17.3902C5.30997 17.7802 5.30997 18.4102 5.69997 18.8002C6.08997 19.1902 6.71997 19.1902 7.10997 18.8002L12 13.9102L16.89 18.8002C17.28 19.1902 17.91 19.1902 18.3 18.8002C18.69 18.4102 18.69 17.7802 18.3 17.3902L13.41 12.5002L18.3 7.61022C18.68 7.23022 18.68 6.59022 18.3 6.21022Z" fill="#111322"/>
</g>
<defs>
<clipPath id="clip0_10359_7230">
<rect width="24" height="24" fill="white" transform="translate(0 0.5)"/>
</clipPath>
</defs>
</svg>
