<svg width="23" height="22" viewBox="0 0 23 22" fill="none" xmlns="http://www.w3.org/2000/svg">
<path d="M11.5046 5.3855C8.39917 5.3855 5.89429 7.89038 5.89429 10.9958C5.89429 14.1013 8.39917 16.6062 11.5046 16.6062C14.6101 16.6062 17.115 14.1013 17.115 10.9958C17.115 7.89038 14.6101 5.3855 11.5046 5.3855ZM11.5046 14.6433C9.4978 14.6433 7.85718 13.0076 7.85718 10.9958C7.85718 8.98413 9.49292 7.34839 11.5046 7.34839C13.5164 7.34839 15.1521 8.98413 15.1521 10.9958C15.1521 13.0076 13.5115 14.6433 11.5046 14.6433ZM18.6531 5.15601C18.6531 5.88354 18.0671 6.4646 17.3445 6.4646C16.6169 6.4646 16.0359 5.87866 16.0359 5.15601C16.0359 4.43335 16.6218 3.84741 17.3445 3.84741C18.0671 3.84741 18.6531 4.43335 18.6531 5.15601ZM22.3689 6.48413C22.2859 4.7312 21.8855 3.17847 20.6013 1.89917C19.322 0.619873 17.7693 0.219482 16.0164 0.131592C14.2097 0.0290527 8.79468 0.0290527 6.98804 0.131592C5.23999 0.2146 3.68726 0.61499 2.40308 1.89429C1.1189 3.17358 0.723389 4.72632 0.635498 6.47925C0.532959 8.28589 0.532959 13.7009 0.635498 15.5076C0.718506 17.2605 1.1189 18.8132 2.40308 20.0925C3.68726 21.3718 5.23511 21.7722 6.98804 21.8601C8.79468 21.9626 14.2097 21.9626 16.0164 21.8601C17.7693 21.7771 19.322 21.3767 20.6013 20.0925C21.8806 18.8132 22.281 17.2605 22.3689 15.5076C22.4714 13.7009 22.4714 8.29077 22.3689 6.48413ZM20.0349 17.446C19.6541 18.4031 18.9167 19.1404 17.9548 19.5261C16.5144 20.0974 13.0964 19.9656 11.5046 19.9656C9.91284 19.9656 6.48999 20.0925 5.05444 19.5261C4.09741 19.1453 3.36011 18.408 2.97437 17.446C2.40308 16.0056 2.53491 12.5876 2.53491 10.9958C2.53491 9.40405 2.40796 5.9812 2.97437 4.54565C3.35522 3.58862 4.09253 2.85132 5.05444 2.46558C6.49487 1.89429 9.91284 2.02612 11.5046 2.02612C13.0964 2.02612 16.5193 1.89917 17.9548 2.46558C18.9119 2.84644 19.6492 3.58374 20.0349 4.54565C20.6062 5.98608 20.4744 9.40405 20.4744 10.9958C20.4744 12.5876 20.6062 16.0105 20.0349 17.446Z" fill="#A4A1AA"/>
</svg>
