<svg width="20" height="20" viewBox="0 0 20 20" fill="none" xmlns="http://www.w3.org/2000/svg">
<circle cx="10" cy="10" r="10" fill="#EA3C12"/>
<path fill-rule="evenodd" clip-rule="evenodd" d="M14.5701 6.12731C14.7759 6.33154 14.7772 6.66395 14.573 6.86977C12.8605 8.59554 11.4947 10.3232 10.5569 11.6201C10.0884 12.2681 9.72752 12.8073 9.48451 13.1834C9.36302 13.3714 9.27105 13.5185 9.20984 13.6179C9.17924 13.6676 9.15634 13.7054 9.1413 13.7304L9.12464 13.7583L9.12077 13.7648L9.11996 13.7662C9.02773 13.9228 8.86092 14.0208 8.67919 14.0248C8.49771 14.0289 8.32702 13.9389 8.22782 13.787C8.22777 13.7869 8.2274 13.7863 8.22735 13.7862L8.22682 13.7854L8.2203 13.7757C8.21395 13.7663 8.20362 13.7512 8.18929 13.7308C8.16061 13.69 8.11596 13.6281 8.05522 13.5487C7.93371 13.3896 7.74814 13.1606 7.49778 12.8894C6.99656 12.3464 6.23892 11.6381 5.2191 10.9838C4.97506 10.8272 4.90416 10.5024 5.06073 10.2584C5.21731 10.0144 5.54207 9.94346 5.78611 10.1C6.89566 10.8119 7.72044 11.5826 8.26929 12.1772C8.40396 12.323 8.5222 12.4585 8.62416 12.5802C8.87535 12.1926 9.23908 11.6507 9.70609 11.0048C10.6665 9.67671 12.0671 7.90441 13.8277 6.13019C14.0319 5.92437 14.3643 5.92308 14.5701 6.12731Z" fill="white"/>
</svg>
